<?xml version="1.0" encoding="UTF-8" standalone="no"?>
<!DOCTYPE svg PUBLIC "-//W3C//DTD SVG 1.1//EN" "http://www.w3.org/Graphics/SVG/1.1/DTD/svg11.dtd">
<svg width="100%" height="100%" viewBox="0 0 92 89" version="1.1" xmlns="http://www.w3.org/2000/svg" xmlns:xlink="http://www.w3.org/1999/xlink" xml:space="preserve" xmlns:serif="http://www.serif.com/" style="fill-rule:evenodd;clip-rule:evenodd;stroke-linejoin:round;stroke-miterlimit:2;">
    <g transform="matrix(1,0,0,1,-193,-13)">
        <g transform="matrix(1,0,0,1,189.319,7.31883)">
            <g>
                <g>
                    <path d="M89.09,31.254C87.543,31.152 86.088,31.58 84.887,32.367C80.916,19.94 70.79,9.678 57.94,6.689C44.974,3.674 31.455,8.618 22.903,18.677C19.475,22.71 16.887,27.439 15.293,32.485C10.642,29.227 4.125,32.929 4.489,38.561L6.432,68.7C6.902,75.967 17.34,77.425 19.778,70.554C13.387,61.885 11.212,48.213 18.319,39.298L18.311,39.182C20.285,26.589 29.088,15.239 41.492,11.535C53.949,7.816 67.261,12.79 75.047,22.997C78.449,27.457 80.737,32.728 81.749,38.242L81.694,39.084C88.996,47.798 86.665,62.157 80.258,70.647C82.786,77.433 93.099,75.906 93.567,68.697L95.508,38.56C95.754,34.771 92.881,31.499 89.09,31.254" style="fill:rgb(10,92,151);fill-rule:nonzero;"/>
                    <path d="M81.492,42.238C78.457,37.203 72.783,34.502 67,34.502L66.792,34.503C57.262,35.186 53.875,40.713 50.986,46.808L50.069,48.745L49.173,46.797C46.38,40.718 42.21,34.503 32.46,34.503L32.216,34.504C25.905,34.909 20.353,38.329 17.703,44.155C14.716,50.72 15.734,58.61 18.754,64.972C21.92,71.643 27.839,76.52 33.33,81.234C38.765,85.898 44.638,89.934 50.184,94.453C58.858,86.709 68.996,80.648 76.71,71.83C80.292,67.735 82.836,63.096 83.661,57.673C84.455,52.504 84.26,46.83 81.492,42.238Z" style="fill:rgb(10,92,151);fill-rule:nonzero;"/>
                </g>
            </g>
        </g>
    </g>
</svg>
